<?xml version="1.0" encoding="UTF-8" standalone="no"?>
<!-- Created with Fritzing (https://fritzing.org/) -->

<svg
   height="2.85296in"
   version="1.2"
   viewBox="0 0 248.474 205.413"
   width="3.45103in"
   x="0in"
   y="0in"
   id="svg13320"
   sodipodi:docname="banners_pcb-cut.svg"
   inkscape:version="1.1.2 (0a00cf5339, 2022-02-04)"
   xmlns:inkscape="http://www.inkscape.org/namespaces/inkscape"
   xmlns:sodipodi="http://sodipodi.sourceforge.net/DTD/sodipodi-0.dtd"
   xmlns="http://www.w3.org/2000/svg"
   xmlns:svg="http://www.w3.org/2000/svg">
  <defs
     id="defs13324" />
  <sodipodi:namedview
     id="namedview13322"
     pagecolor="#ffffff"
     bordercolor="#666666"
     borderopacity="1.0"
     inkscape:pageshadow="2"
     inkscape:pageopacity="0.0"
     inkscape:pagecheckerboard="0"
     inkscape:document-units="in"
     showgrid="false"
     inkscape:zoom="2.745018"
     inkscape:cx="105.46379"
     inkscape:cy="103.09586"
     inkscape:window-width="1718"
     inkscape:window-height="1055"
     inkscape:window-x="1955"
     inkscape:window-y="24"
     inkscape:window-maximized="0"
     inkscape:current-layer="layer2" />
  <g
     partID="867498170"
     id="g12087"
     style="display:inline">
    <g
       transform="translate(0.8408)"
       id="g12085"
       style="display:inline">
      <g
         transform="translate(-1.3625,-1.56348)"
         id="g12083">
        <g
           id="board">
          <g
             id="g12080">
            <defs
               id="defs1531" />
            <g
               id="layer1">
              <g
                 id="layer2">
                <path
                   id="boardoutline"
                   style="display:inline"
                   d="M 14.080078,0 C 6.9011557,0 1.1210938,6.1929262 1.1210938,13.884766 v 7.568359 H 55.470703 V 56.011719 H 1.1210938 V 229.27734 c -2.1e-6,7.69181 5.7800752,13.88282 12.9589842,13.88282 l 304.261722,0.002 c 7.17891,0 12.95703,-6.19293 12.95703,-13.88477 V 13.884766 C 331.29883,6.1929529 325.52069,0 318.3418,0 Z M 11.982422,2.9238281 A 5.8582704,5.8582704 0 0 1 17.841797,8.78125 5.8582704,5.8582704 0 0 1 11.982422,14.640625 5.8582704,5.8582704 0 0 1 6.125,8.78125 5.8582704,5.8582704 0 0 1 11.982422,2.9238281 Z m 308.320308,0 a 5.8582704,5.8582704 0 0 1 5.85743,5.8574219 5.8582704,5.8582704 0 0 1 -5.85743,5.859375 5.8582704,5.8582704 0 0 1 -5.85937,-5.859375 5.8582704,5.8582704 0 0 1 5.85937,-5.8574219 z M 100.25586,12.251953 h 11.58594 v 21.964844 h -11.58594 z m 165.4043,0.580078 h 31.71875 v 20.50586 h -31.71875 z m -102.50977,0.736328 h 20.53906 v 20.566407 h -20.53906 z m 22.58789,33.31836 A 13.228328,13.228328 0 0 1 198.9668,60.115234 13.228328,13.228328 0 0 1 185.73828,73.34375 13.228328,13.228328 0 0 1 172.51172,60.115234 13.228328,13.228328 0 0 1 185.73828,46.886719 Z M 125.33984,55.75 h 20.40625 v 20.40625 h -20.40625 z m 184.40039,44.61914 a 13.228328,13.228328 0 0 1 13.22852,13.22656 13.228328,13.228328 0 0 1 -13.22852,13.22852 13.228328,13.228328 0 0 1 -13.22851,-13.22852 13.228328,13.228328 0 0 1 13.22851,-13.22656 z m -155.48632,7.64844 h 42.27343 v 20.39062 h -42.27343 z m 134.99414,47.61914 h 31.03711 v 11.19531 h -31.03711 z m -109.75391,19.20703 h 30.51953 v 11.59766 h -30.51953 z m 124.53711,12.70898 a 13.228328,13.228328 0 0 1 13.22852,13.22657 13.228328,13.228328 0 0 1 -13.22852,13.22851 13.228328,13.228328 0 0 1 -13.22852,-13.22851 13.228328,13.228328 0 0 1 13.22852,-13.22657 z m -52.87109,3.28907 a 13.228328,13.228328 0 0 1 13.22851,13.22656 13.228328,13.228328 0 0 1 -13.22851,13.22852 13.228328,13.228328 0 0 1 -13.22852,-13.22852 13.228328,13.228328 0 0 1 13.22852,-13.22656 z m -55.94336,17.10351 a 13.228328,13.228328 0 0 1 13.22851,13.22852 13.228328,13.228328 0 0 1 -13.22851,13.22851 13.228328,13.228328 0 0 1 -13.22852,-13.22851 13.228328,13.228328 0 0 1 13.22852,-13.22852 z m -75.6836,0.26367 a 13.228328,13.228328 0 0 1 13.22657,13.22852 13.228328,13.228328 0 0 1 -13.22657,13.22852 13.228328,13.228328 0 0 1 -13.22851,-13.22852 13.228328,13.228328 0 0 1 13.22851,-13.22852 z m -69.462888,0.76563 a 13.228328,13.228328 0 0 1 13.226563,13.22851 13.228328,13.228328 0 0 1 -13.226563,13.22852 13.228328,13.228328 0 0 1 -13.228515,-13.22852 13.228328,13.228328 0 0 1 13.228515,-13.22851 z m -38.171874,19.15234 a 5.8582704,5.8582704 0 0 1 5.857421,5.85743 5.8582704,5.8582704 0 0 1 -5.857421,5.85937 5.8582704,5.8582704 0 0 1 -5.8593755,-5.85937 5.8582704,5.8582704 0 0 1 5.8593755,-5.85743 z m 309.201172,0 a 5.8582705,5.8582705 0 0 1 5.85937,5.85743 5.8582705,5.8582705 0 0 1 -5.85937,5.85937 5.8582705,5.8582705 0 0 1 -5.85742,-5.85937 5.8582705,5.8582705 0 0 1 5.85742,-5.85743 z"
                   transform="matrix(0.74999954,0,0,0.74999954,0.5217,1.56348)" />
                <path
                   id="path38155"
                   style="fill:#b3b3b3;fill-opacity:1;stroke:none;stroke-width:3.77953"
                   d="m 166.33203,0.31445312 c -154.073015,2e-8 -154.478093,0.00262 -157.0644519,1.17578128 -3.4226138,1.5524823 -4.4753771,2.5704284 -6.2382812,6.03125 -1.1865263,2.3293131 -1.527007,3.9910416 -1.75,8.5332036 l -0.265625,5.398437 H 55.470703 V 56.011719 H 1.15625 v 85.994141 c 0,60.9467 0.1918813,88.22135 0.6328125,90.27734 0.8074686,3.7651 3.5907547,7.45478 6.8808594,9.11914 l 2.5800781,1.30469 155.69531,-0.14648 155.69531,-0.14844 2.44532,-1.69531 c 1.34525,-0.93227 3.14506,-2.88365 4,-4.33789 l 1.55468,-2.64453 0.16407,-110.79297 C 330.92677,40.658851 330.79787,11.522971 330.30273,9.7148438 329.44598,6.5861976 326.14703,2.741088 323.15234,1.3808594 320.89161,0.35400484 315.15928,0.31445312 166.33203,0.31445312 Z M 12.933594,2.78125 c 4.503651,0.7108373 6.928125,6.6636712 3.310547,10.28125 -2.35928,2.359325 -5.640802,2.359402 -8.2792972,0.002 -1.603675,-1.432883 -1.890625,-2.082504 -1.890625,-4.2929686 0,-3.1727037 1.7900386,-5.3837882 4.8144532,-5.9511719 0.716727,-0.1344588 1.401543,-0.1406102 2.044922,-0.039063 z M 320.70312,2.804687 c 1.39136,0.1022269 2.79654,0.7300972 3.97657,2.0507813 1.55373,1.7389654 1.71928,2.2654382 1.45508,4.609375 -0.21581,1.9147157 -0.72288,3.0110627 -1.83399,3.9667977 -1.02962,0.885649 -2.23876,1.3075 -3.67187,1.28125 -2.91087,-0.05333 -4.44022,-0.896809 -5.63282,-3.111329 -2.51733,-4.6743945 1.533,-9.1035558 5.70703,-8.796875 z m -220.61328,9.054688 h 6.07422 6.07422 v 11.283203 11.28125 h -6.07422 -6.07422 v -11.28125 z m 61.58985,0.236328 h 23.48047 v 23.511719 h -23.48047 z m 103.875,0.34375 H 281.46484 297.375 V 23.142578 33.845703 H 281.46484 265.55469 V 23.142578 Z M 185.71484,46.90625 c 7.9292,0 13.30664,5.395399 13.30664,13.351562 0,6.077088 -3.62507,10.90118 -9.50781,12.65625 -3.45239,1.029996 -4.4375,1.019227 -8.04101,-0.08789 -3.51872,-1.081066 -7.37421,-4.818124 -8.35352,-8.095703 -2.8459,-9.524666 3.01972,-17.824219 12.5957,-17.824219 z m -60.74804,8.345703 h 10.41406 10.41406 V 65.955078 76.658203 H 135.38086 124.9668 V 65.955078 Z m 184.52929,45.166017 c 2.04202,-0.0583 4.06741,0.18246 5.39844,0.74023 10.58332,4.43497 11.12849,19.22931 0.89649,24.32813 -8.48879,4.23014 -18.07713,-0.89096 -19.37305,-10.34571 -0.73381,-5.35371 2.63215,-11.42535 7.57812,-13.67187 1.39958,-0.63571 3.45799,-0.9925 5.5,-1.05078 z m -155.60156,7.48242 h 21.40625 21.40625 v 10.41211 10.41406 H 175.30078 153.89453 V 118.3125 Z m 166.62109,47.42188 v 5.79492 5.79492 H 304.58594 288.6543 l 0.16601,-5.64063 0.16407,-5.64257 15.76562,-0.15235 z m -141.16601,19.10937 h 15.33203 15.33203 v 6.07617 6.07422 h -15.33203 -15.33203 v -6.07422 z m 124.36328,12.89258 c 1.04103,-0.005 2.12331,0.12262 3.25977,0.37695 5.74582,1.28586 10.65039,7.29714 10.65039,13.05469 0,5.42107 -4.27713,11.19757 -9.42578,12.72656 -3.53962,1.05122 -5.07806,1.04375 -8.58204,-0.0351 -4.90437,-1.51015 -9.18359,-7.424 -9.18359,-12.69141 0,-3.41929 1.78643,-7.16955 4.63477,-9.73047 2.767,-2.48759 5.5234,-3.68651 8.64648,-3.70117 z m -53.50391,3.39453 c 7.75228,-0.52991 14.14507,5.17991 14.17579,13.4707 0.0206,5.5668 -2.96971,10.24223 -7.79883,12.19727 -10.75143,4.35265 -21.28359,-5.13087 -18.24219,-16.42578 0.87962,-3.26664 5.18156,-7.64318 8.47461,-8.6211 1.14842,-0.34104 2.28316,-0.54539 3.39062,-0.62109 z m -55.42187,17.21094 c 2.05889,-0.0467 4.15634,0.25177 5.73242,0.91015 10.43181,4.35767 10.87176,19.1964 0.71875,24.25586 -10.28113,5.1233 -21.69756,-4.00533 -19.01172,-15.20117 0.8197,-3.4169 3.80724,-7.14011 7.0586,-8.79883 1.42378,-0.72636 3.44306,-1.11935 5.50195,-1.16601 z m -75.32031,0.0996 c 8.48742,-0.0691 15.69217,8.17155 12.92773,17.39843 -0.85154,2.84217 -4.03907,6.58811 -6.76758,7.95508 -10.50468,5.26278 -22.3755,-4.58514 -18.96289,-15.73047 1.18608,-3.87365 3.29917,-6.39964 6.82813,-8.1582 1.9885,-0.99091 4.01597,-1.44889 5.97461,-1.46484 z m -68.917972,0.65625 c 5.587249,0.26971 11.312407,4.83537 12.556641,10.49609 1.338416,6.08921 -1.326594,12.05103 -6.601563,14.76563 -5.54642,2.85429 -11.675105,1.95575 -15.972656,-2.3418 -2.227267,-2.22727 -4.082031,-6.4494 -4.082031,-9.29102 0,-6.21958 5.255404,-12.2567 11.726562,-13.4707 0.779008,-0.14614 1.574869,-0.19673 2.373047,-0.1582 z M 321.375,227.90625 c 0.71361,0.0545 1.45806,0.24923 2.21289,0.60742 3.80347,1.80486 4.69456,6.58467 1.79297,9.61328 -1.32316,1.38108 -2.08616,1.68164 -4.28516,1.68164 -2.16659,0 -2.96492,-0.30378 -4.1914,-1.59179 -4.06818,-4.2723 -0.52456,-10.69204 4.4707,-10.31055 z m -309.580078,0.0508 c 4.68343,-0.12534 8.29314,5.85283 4.83789,9.80469 -4.019986,4.59776 -11.3712119,1.49962 -10.6406245,-4.48438 0.3245737,-2.65848 1.208942,-3.8078 3.7480469,-4.86914 0.6954386,-0.29069 1.3856256,-0.43326 2.0546876,-0.45117 z"
                   transform="matrix(0.74999954,0,0,0.74999954,0.5217,1.56348)" />
              </g>
              <g
                 inkscape:groupmode="layer"
                 id="layer6"
                 inkscape:label="silkscreen" />
              <g
                 inkscape:groupmode="layer"
                 id="layer7"
                 inkscape:label="silkscreen0" />
            </g>
            <g
               id="layer3">
              <path
                 d="m 11.0812,1.56326 h 228.196 c 5.38417,0 9.71874,4.64425 9.71874,10.4131 v 161.545 c 0,5.76887 -4.33456,10.4131 -9.71874,10.4131 L 11.0812,183.934 c -5.38418,0 -9.71874,-4.64425 -9.71874,-10.4131 l 4e-5,-161.5445 c 0,-5.76887 4.33455,-10.4131 9.71874,-10.4131 z"
                 fill="none"
                 id="rect7045-3"
                 stroke-width="2.80986"
                 style="display:inline" />
            </g>
            <g
               id="layer4"
               style="display:inline">
              <path
                 d="m 11.0812,1.56326 h 228.196 c 5.38417,0 9.71874,4.64425 9.71874,10.4131 v 161.545 c 0,5.76887 -4.33456,10.4131 -9.71874,10.4131 L 11.0812,183.934 c -5.38418,0 -9.71874,-4.64425 -9.71874,-10.4131 l 5e-5,-161.5445 c 0,-5.76887 4.33455,-10.4131 9.71874,-10.4131 z"
                 fill="none"
                 id="rect7045-3-6"
                 stroke-width="2.80914"
                 style="display:inline" />
            </g>
          </g>
        </g>
      </g>
    </g>
  </g>
</svg>
