G04 MADE WITH FRITZING*
G04 WWW.FRITZING.ORG*
G04 DOUBLE SIDED*
G04 HOLES PLATED*
G04 CONTOUR ON CENTER OF CONTOUR VECTOR*
%ASAXBY*%
%FSLAX23Y23*%
%MOIN*%
%OFA0B0*%
%SFA1.0B1.0*%
%ADD10R,0.001000X0.001000*%
%LNSILK0*%
G90*
G70*
G54D10*
X2122Y1996D02*
X2130Y1996D01*
X2306Y1996D02*
X2313Y1996D01*
X2490Y1996D02*
X2497Y1996D01*
X2674Y1996D02*
X2681Y1996D01*
X2857Y1996D02*
X2865Y1996D01*
X3041Y1996D02*
X3049Y1996D01*
X2121Y1995D02*
X2131Y1995D01*
X2305Y1995D02*
X2315Y1995D01*
X2489Y1995D02*
X2498Y1995D01*
X2672Y1995D02*
X2682Y1995D01*
X2856Y1995D02*
X2866Y1995D01*
X3040Y1995D02*
X3050Y1995D01*
X2120Y1994D02*
X2131Y1994D01*
X2304Y1994D02*
X2315Y1994D01*
X2488Y1994D02*
X2499Y1994D01*
X2672Y1994D02*
X2683Y1994D01*
X2856Y1994D02*
X2867Y1994D01*
X3040Y1994D02*
X3051Y1994D01*
X2075Y1993D02*
X2088Y1993D01*
X2120Y1993D02*
X2132Y1993D01*
X2259Y1993D02*
X2272Y1993D01*
X2304Y1993D02*
X2315Y1993D01*
X2443Y1993D02*
X2456Y1993D01*
X2488Y1993D02*
X2499Y1993D01*
X2626Y1993D02*
X2639Y1993D01*
X2672Y1993D02*
X2683Y1993D01*
X2810Y1993D02*
X2823Y1993D01*
X2855Y1993D02*
X2867Y1993D01*
X2994Y1993D02*
X3007Y1993D01*
X3039Y1993D02*
X3051Y1993D01*
X2073Y1992D02*
X2090Y1992D01*
X2120Y1992D02*
X2132Y1992D01*
X2257Y1992D02*
X2274Y1992D01*
X2304Y1992D02*
X2316Y1992D01*
X2440Y1992D02*
X2458Y1992D01*
X2488Y1992D02*
X2499Y1992D01*
X2624Y1992D02*
X2641Y1992D01*
X2671Y1992D02*
X2683Y1992D01*
X2808Y1992D02*
X2825Y1992D01*
X2855Y1992D02*
X2867Y1992D01*
X2992Y1992D02*
X3009Y1992D01*
X3039Y1992D02*
X3051Y1992D01*
X2072Y1991D02*
X2091Y1991D01*
X2120Y1991D02*
X2132Y1991D01*
X2256Y1991D02*
X2275Y1991D01*
X2304Y1991D02*
X2316Y1991D01*
X2440Y1991D02*
X2458Y1991D01*
X2488Y1991D02*
X2499Y1991D01*
X2623Y1991D02*
X2642Y1991D01*
X2671Y1991D02*
X2683Y1991D01*
X2807Y1991D02*
X2826Y1991D01*
X2855Y1991D02*
X2867Y1991D01*
X2991Y1991D02*
X3010Y1991D01*
X3039Y1991D02*
X3051Y1991D01*
X2071Y1990D02*
X2091Y1990D01*
X2120Y1990D02*
X2132Y1990D01*
X2255Y1990D02*
X2275Y1990D01*
X2304Y1990D02*
X2316Y1990D01*
X2439Y1990D02*
X2459Y1990D01*
X2488Y1990D02*
X2499Y1990D01*
X2623Y1990D02*
X2643Y1990D01*
X2671Y1990D02*
X2683Y1990D01*
X2807Y1990D02*
X2827Y1990D01*
X2855Y1990D02*
X2867Y1990D01*
X2991Y1990D02*
X3011Y1990D01*
X3039Y1990D02*
X3051Y1990D01*
X2071Y1989D02*
X2091Y1989D01*
X2120Y1989D02*
X2132Y1989D01*
X2255Y1989D02*
X2275Y1989D01*
X2304Y1989D02*
X2316Y1989D01*
X2439Y1989D02*
X2459Y1989D01*
X2488Y1989D02*
X2499Y1989D01*
X2623Y1989D02*
X2643Y1989D01*
X2671Y1989D02*
X2683Y1989D01*
X2807Y1989D02*
X2827Y1989D01*
X2855Y1989D02*
X2867Y1989D01*
X2991Y1989D02*
X3011Y1989D01*
X3039Y1989D02*
X3051Y1989D01*
X2071Y1988D02*
X2091Y1988D01*
X2120Y1988D02*
X2132Y1988D01*
X2255Y1988D02*
X2275Y1988D01*
X2304Y1988D02*
X2315Y1988D01*
X2439Y1988D02*
X2459Y1988D01*
X2488Y1988D02*
X2499Y1988D01*
X2623Y1988D02*
X2643Y1988D01*
X2672Y1988D02*
X2683Y1988D01*
X2807Y1988D02*
X2827Y1988D01*
X2856Y1988D02*
X2867Y1988D01*
X2991Y1988D02*
X3011Y1988D01*
X3039Y1988D02*
X3051Y1988D01*
X2071Y1987D02*
X2091Y1987D01*
X2120Y1987D02*
X2131Y1987D01*
X2255Y1987D02*
X2275Y1987D01*
X2304Y1987D02*
X2315Y1987D01*
X2439Y1987D02*
X2459Y1987D01*
X2488Y1987D02*
X2499Y1987D01*
X2623Y1987D02*
X2643Y1987D01*
X2672Y1987D02*
X2683Y1987D01*
X2807Y1987D02*
X2826Y1987D01*
X2856Y1987D02*
X2867Y1987D01*
X2991Y1987D02*
X3010Y1987D01*
X3040Y1987D02*
X3051Y1987D01*
X2071Y1986D02*
X2090Y1986D01*
X2121Y1986D02*
X2130Y1986D01*
X2255Y1986D02*
X2274Y1986D01*
X2305Y1986D02*
X2314Y1986D01*
X2439Y1986D02*
X2458Y1986D01*
X2489Y1986D02*
X2498Y1986D01*
X2623Y1986D02*
X2642Y1986D01*
X2673Y1986D02*
X2682Y1986D01*
X2807Y1986D02*
X2826Y1986D01*
X2857Y1986D02*
X2866Y1986D01*
X2991Y1986D02*
X3010Y1986D01*
X3040Y1986D02*
X3050Y1986D01*
X2071Y1985D02*
X2089Y1985D01*
X2122Y1985D02*
X2129Y1985D01*
X2255Y1985D02*
X2273Y1985D01*
X2306Y1985D02*
X2313Y1985D01*
X2439Y1985D02*
X2457Y1985D01*
X2490Y1985D02*
X2497Y1985D01*
X2623Y1985D02*
X2640Y1985D01*
X2674Y1985D02*
X2681Y1985D01*
X2807Y1985D02*
X2824Y1985D01*
X2858Y1985D02*
X2865Y1985D01*
X2991Y1985D02*
X3008Y1985D01*
X3042Y1985D02*
X3048Y1985D01*
X2071Y1984D02*
X2079Y1984D01*
X2255Y1984D02*
X2263Y1984D01*
X2439Y1984D02*
X2447Y1984D01*
X2623Y1984D02*
X2630Y1984D01*
X2807Y1984D02*
X2814Y1984D01*
X2991Y1984D02*
X2998Y1984D01*
X2071Y1983D02*
X2079Y1983D01*
X2255Y1983D02*
X2263Y1983D01*
X2439Y1983D02*
X2447Y1983D01*
X2623Y1983D02*
X2630Y1983D01*
X2807Y1983D02*
X2814Y1983D01*
X2991Y1983D02*
X2998Y1983D01*
X2071Y1982D02*
X2079Y1982D01*
X2255Y1982D02*
X2263Y1982D01*
X2439Y1982D02*
X2447Y1982D01*
X2623Y1982D02*
X2630Y1982D01*
X2807Y1982D02*
X2814Y1982D01*
X2991Y1982D02*
X2998Y1982D01*
X2071Y1981D02*
X2079Y1981D01*
X2255Y1981D02*
X2263Y1981D01*
X2439Y1981D02*
X2447Y1981D01*
X2623Y1981D02*
X2630Y1981D01*
X2807Y1981D02*
X2814Y1981D01*
X2991Y1981D02*
X2998Y1981D01*
X2071Y1980D02*
X2079Y1980D01*
X2255Y1980D02*
X2263Y1980D01*
X2439Y1980D02*
X2447Y1980D01*
X2623Y1980D02*
X2630Y1980D01*
X2807Y1980D02*
X2814Y1980D01*
X2991Y1980D02*
X2998Y1980D01*
X2071Y1979D02*
X2079Y1979D01*
X2255Y1979D02*
X2263Y1979D01*
X2439Y1979D02*
X2447Y1979D01*
X2623Y1979D02*
X2630Y1979D01*
X2807Y1979D02*
X2814Y1979D01*
X2991Y1979D02*
X2998Y1979D01*
X2071Y1978D02*
X2079Y1978D01*
X2255Y1978D02*
X2263Y1978D01*
X2439Y1978D02*
X2447Y1978D01*
X2623Y1978D02*
X2630Y1978D01*
X2807Y1978D02*
X2814Y1978D01*
X2991Y1978D02*
X2998Y1978D01*
X2071Y1977D02*
X2079Y1977D01*
X2255Y1977D02*
X2263Y1977D01*
X2439Y1977D02*
X2447Y1977D01*
X2623Y1977D02*
X2630Y1977D01*
X2807Y1977D02*
X2814Y1977D01*
X2991Y1977D02*
X2998Y1977D01*
X2071Y1976D02*
X2079Y1976D01*
X2255Y1976D02*
X2263Y1976D01*
X2439Y1976D02*
X2447Y1976D01*
X2623Y1976D02*
X2630Y1976D01*
X2807Y1976D02*
X2814Y1976D01*
X2991Y1976D02*
X2998Y1976D01*
X1997Y1975D02*
X2016Y1975D01*
X2071Y1975D02*
X2079Y1975D01*
X2123Y1975D02*
X2141Y1975D01*
X2180Y1975D02*
X2200Y1975D01*
X2255Y1975D02*
X2263Y1975D01*
X2307Y1975D02*
X2325Y1975D01*
X2364Y1975D02*
X2384Y1975D01*
X2439Y1975D02*
X2447Y1975D01*
X2491Y1975D02*
X2509Y1975D01*
X2548Y1975D02*
X2568Y1975D01*
X2623Y1975D02*
X2630Y1975D01*
X2675Y1975D02*
X2692Y1975D01*
X2732Y1975D02*
X2752Y1975D01*
X2807Y1975D02*
X2814Y1975D01*
X2859Y1975D02*
X2876Y1975D01*
X2916Y1975D02*
X2936Y1975D01*
X2991Y1975D02*
X2998Y1975D01*
X3043Y1975D02*
X3060Y1975D01*
X1995Y1974D02*
X2020Y1974D01*
X2071Y1974D02*
X2079Y1974D01*
X2121Y1974D02*
X2143Y1974D01*
X2178Y1974D02*
X2204Y1974D01*
X2255Y1974D02*
X2263Y1974D01*
X2305Y1974D02*
X2327Y1974D01*
X2362Y1974D02*
X2388Y1974D01*
X2439Y1974D02*
X2447Y1974D01*
X2489Y1974D02*
X2511Y1974D01*
X2546Y1974D02*
X2571Y1974D01*
X2623Y1974D02*
X2630Y1974D01*
X2673Y1974D02*
X2694Y1974D01*
X2730Y1974D02*
X2755Y1974D01*
X2807Y1974D02*
X2814Y1974D01*
X2857Y1974D02*
X2878Y1974D01*
X2914Y1974D02*
X2939Y1974D01*
X2991Y1974D02*
X2998Y1974D01*
X3041Y1974D02*
X3062Y1974D01*
X1994Y1973D02*
X2022Y1973D01*
X2071Y1973D02*
X2079Y1973D01*
X2121Y1973D02*
X2144Y1973D01*
X2178Y1973D02*
X2206Y1973D01*
X2255Y1973D02*
X2263Y1973D01*
X2304Y1973D02*
X2328Y1973D01*
X2361Y1973D02*
X2389Y1973D01*
X2439Y1973D02*
X2447Y1973D01*
X2488Y1973D02*
X2511Y1973D01*
X2545Y1973D02*
X2573Y1973D01*
X2623Y1973D02*
X2630Y1973D01*
X2672Y1973D02*
X2695Y1973D01*
X2729Y1973D02*
X2757Y1973D01*
X2807Y1973D02*
X2814Y1973D01*
X2856Y1973D02*
X2879Y1973D01*
X2913Y1973D02*
X2941Y1973D01*
X2991Y1973D02*
X2998Y1973D01*
X3040Y1973D02*
X3063Y1973D01*
X1993Y1972D02*
X2023Y1972D01*
X2071Y1972D02*
X2079Y1972D01*
X2120Y1972D02*
X2144Y1972D01*
X2177Y1972D02*
X2207Y1972D01*
X2255Y1972D02*
X2263Y1972D01*
X2304Y1972D02*
X2328Y1972D01*
X2361Y1972D02*
X2391Y1972D01*
X2439Y1972D02*
X2447Y1972D01*
X2488Y1972D02*
X2512Y1972D01*
X2545Y1972D02*
X2575Y1972D01*
X2623Y1972D02*
X2630Y1972D01*
X2672Y1972D02*
X2696Y1972D01*
X2729Y1972D02*
X2759Y1972D01*
X2807Y1972D02*
X2814Y1972D01*
X2856Y1972D02*
X2880Y1972D01*
X2913Y1972D02*
X2943Y1972D01*
X2991Y1972D02*
X2998Y1972D01*
X3039Y1972D02*
X3063Y1972D01*
X1993Y1971D02*
X2024Y1971D01*
X2071Y1971D02*
X2079Y1971D01*
X2120Y1971D02*
X2144Y1971D01*
X2177Y1971D02*
X2208Y1971D01*
X2255Y1971D02*
X2263Y1971D01*
X2304Y1971D02*
X2328Y1971D01*
X2361Y1971D02*
X2392Y1971D01*
X2439Y1971D02*
X2447Y1971D01*
X2488Y1971D02*
X2512Y1971D01*
X2545Y1971D02*
X2576Y1971D01*
X2623Y1971D02*
X2630Y1971D01*
X2672Y1971D02*
X2696Y1971D01*
X2729Y1971D02*
X2760Y1971D01*
X2807Y1971D02*
X2814Y1971D01*
X2855Y1971D02*
X2880Y1971D01*
X2912Y1971D02*
X2944Y1971D01*
X2991Y1971D02*
X2998Y1971D01*
X3039Y1971D02*
X3064Y1971D01*
X1993Y1970D02*
X2026Y1970D01*
X2071Y1970D02*
X2079Y1970D01*
X2120Y1970D02*
X2144Y1970D01*
X2177Y1970D02*
X2209Y1970D01*
X2255Y1970D02*
X2263Y1970D01*
X2304Y1970D02*
X2328Y1970D01*
X2361Y1970D02*
X2393Y1970D01*
X2439Y1970D02*
X2447Y1970D01*
X2488Y1970D02*
X2512Y1970D01*
X2545Y1970D02*
X2577Y1970D01*
X2623Y1970D02*
X2630Y1970D01*
X2671Y1970D02*
X2696Y1970D01*
X2729Y1970D02*
X2761Y1970D01*
X2807Y1970D02*
X2814Y1970D01*
X2855Y1970D02*
X2880Y1970D01*
X2913Y1970D02*
X2945Y1970D01*
X2991Y1970D02*
X2998Y1970D01*
X3039Y1970D02*
X3063Y1970D01*
X1994Y1969D02*
X2027Y1969D01*
X2071Y1969D02*
X2079Y1969D01*
X2120Y1969D02*
X2144Y1969D01*
X2177Y1969D02*
X2211Y1969D01*
X2255Y1969D02*
X2263Y1969D01*
X2304Y1969D02*
X2328Y1969D01*
X2361Y1969D02*
X2394Y1969D01*
X2439Y1969D02*
X2447Y1969D01*
X2488Y1969D02*
X2512Y1969D01*
X2545Y1969D02*
X2578Y1969D01*
X2623Y1969D02*
X2630Y1969D01*
X2671Y1969D02*
X2695Y1969D01*
X2729Y1969D02*
X2762Y1969D01*
X2807Y1969D02*
X2814Y1969D01*
X2855Y1969D02*
X2879Y1969D01*
X2913Y1969D02*
X2946Y1969D01*
X2991Y1969D02*
X2998Y1969D01*
X3039Y1969D02*
X3063Y1969D01*
X1994Y1968D02*
X2028Y1968D01*
X2071Y1968D02*
X2079Y1968D01*
X2120Y1968D02*
X2143Y1968D01*
X2178Y1968D02*
X2212Y1968D01*
X2255Y1968D02*
X2263Y1968D01*
X2304Y1968D02*
X2327Y1968D01*
X2362Y1968D02*
X2395Y1968D01*
X2439Y1968D02*
X2447Y1968D01*
X2488Y1968D02*
X2511Y1968D01*
X2546Y1968D02*
X2579Y1968D01*
X2623Y1968D02*
X2630Y1968D01*
X2671Y1968D02*
X2695Y1968D01*
X2730Y1968D02*
X2763Y1968D01*
X2807Y1968D02*
X2814Y1968D01*
X2855Y1968D02*
X2879Y1968D01*
X2914Y1968D02*
X2947Y1968D01*
X2991Y1968D02*
X2998Y1968D01*
X3039Y1968D02*
X3062Y1968D01*
X1996Y1967D02*
X2029Y1967D01*
X2071Y1967D02*
X2079Y1967D01*
X2120Y1967D02*
X2142Y1967D01*
X2180Y1967D02*
X2213Y1967D01*
X2255Y1967D02*
X2263Y1967D01*
X2304Y1967D02*
X2326Y1967D01*
X2363Y1967D02*
X2396Y1967D01*
X2439Y1967D02*
X2447Y1967D01*
X2488Y1967D02*
X2509Y1967D01*
X2547Y1967D02*
X2580Y1967D01*
X2623Y1967D02*
X2630Y1967D01*
X2671Y1967D02*
X2693Y1967D01*
X2731Y1967D02*
X2764Y1967D01*
X2807Y1967D02*
X2814Y1967D01*
X2855Y1967D02*
X2877Y1967D01*
X2915Y1967D02*
X2948Y1967D01*
X2991Y1967D02*
X2998Y1967D01*
X3039Y1967D02*
X3061Y1967D01*
X2017Y1966D02*
X2030Y1966D01*
X2071Y1966D02*
X2079Y1966D01*
X2120Y1966D02*
X2127Y1966D01*
X2201Y1966D02*
X2214Y1966D01*
X2255Y1966D02*
X2263Y1966D01*
X2304Y1966D02*
X2311Y1966D01*
X2385Y1966D02*
X2397Y1966D01*
X2439Y1966D02*
X2447Y1966D01*
X2488Y1966D02*
X2495Y1966D01*
X2569Y1966D02*
X2581Y1966D01*
X2623Y1966D02*
X2630Y1966D01*
X2671Y1966D02*
X2679Y1966D01*
X2753Y1966D02*
X2765Y1966D01*
X2807Y1966D02*
X2814Y1966D01*
X2855Y1966D02*
X2863Y1966D01*
X2937Y1966D02*
X2949Y1966D01*
X2991Y1966D02*
X2998Y1966D01*
X3039Y1966D02*
X3047Y1966D01*
X2019Y1965D02*
X2031Y1965D01*
X2071Y1965D02*
X2079Y1965D01*
X2120Y1965D02*
X2127Y1965D01*
X2203Y1965D02*
X2215Y1965D01*
X2255Y1965D02*
X2263Y1965D01*
X2304Y1965D02*
X2311Y1965D01*
X2386Y1965D02*
X2398Y1965D01*
X2439Y1965D02*
X2447Y1965D01*
X2488Y1965D02*
X2495Y1965D01*
X2570Y1965D02*
X2582Y1965D01*
X2623Y1965D02*
X2630Y1965D01*
X2671Y1965D02*
X2679Y1965D01*
X2754Y1965D02*
X2766Y1965D01*
X2807Y1965D02*
X2814Y1965D01*
X2855Y1965D02*
X2863Y1965D01*
X2938Y1965D02*
X2950Y1965D01*
X2991Y1965D02*
X2998Y1965D01*
X3039Y1965D02*
X3047Y1965D01*
X2020Y1964D02*
X2032Y1964D01*
X2071Y1964D02*
X2079Y1964D01*
X2120Y1964D02*
X2127Y1964D01*
X2204Y1964D02*
X2215Y1964D01*
X2255Y1964D02*
X2263Y1964D01*
X2304Y1964D02*
X2311Y1964D01*
X2388Y1964D02*
X2399Y1964D01*
X2439Y1964D02*
X2447Y1964D01*
X2488Y1964D02*
X2495Y1964D01*
X2571Y1964D02*
X2583Y1964D01*
X2623Y1964D02*
X2630Y1964D01*
X2671Y1964D02*
X2679Y1964D01*
X2755Y1964D02*
X2767Y1964D01*
X2807Y1964D02*
X2814Y1964D01*
X2855Y1964D02*
X2863Y1964D01*
X2939Y1964D02*
X2951Y1964D01*
X2991Y1964D02*
X2998Y1964D01*
X3039Y1964D02*
X3047Y1964D01*
X2021Y1963D02*
X2032Y1963D01*
X2071Y1963D02*
X2079Y1963D01*
X2120Y1963D02*
X2127Y1963D01*
X2205Y1963D02*
X2216Y1963D01*
X2255Y1963D02*
X2263Y1963D01*
X2304Y1963D02*
X2311Y1963D01*
X2389Y1963D02*
X2400Y1963D01*
X2439Y1963D02*
X2447Y1963D01*
X2488Y1963D02*
X2495Y1963D01*
X2573Y1963D02*
X2584Y1963D01*
X2623Y1963D02*
X2630Y1963D01*
X2671Y1963D02*
X2679Y1963D01*
X2756Y1963D02*
X2768Y1963D01*
X2807Y1963D02*
X2814Y1963D01*
X2855Y1963D02*
X2863Y1963D01*
X2940Y1963D02*
X2952Y1963D01*
X2991Y1963D02*
X2998Y1963D01*
X3039Y1963D02*
X3047Y1963D01*
X2022Y1962D02*
X2033Y1962D01*
X2071Y1962D02*
X2079Y1962D01*
X2120Y1962D02*
X2127Y1962D01*
X2206Y1962D02*
X2217Y1962D01*
X2255Y1962D02*
X2263Y1962D01*
X2304Y1962D02*
X2311Y1962D01*
X2390Y1962D02*
X2401Y1962D01*
X2439Y1962D02*
X2447Y1962D01*
X2488Y1962D02*
X2495Y1962D01*
X2574Y1962D02*
X2584Y1962D01*
X2623Y1962D02*
X2630Y1962D01*
X2671Y1962D02*
X2679Y1962D01*
X2758Y1962D02*
X2768Y1962D01*
X2807Y1962D02*
X2814Y1962D01*
X2855Y1962D02*
X2863Y1962D01*
X2942Y1962D02*
X2952Y1962D01*
X2991Y1962D02*
X2998Y1962D01*
X3039Y1962D02*
X3047Y1962D01*
X2023Y1961D02*
X2033Y1961D01*
X2071Y1961D02*
X2079Y1961D01*
X2120Y1961D02*
X2127Y1961D01*
X2207Y1961D02*
X2217Y1961D01*
X2255Y1961D02*
X2263Y1961D01*
X2304Y1961D02*
X2311Y1961D01*
X2391Y1961D02*
X2401Y1961D01*
X2439Y1961D02*
X2447Y1961D01*
X2488Y1961D02*
X2495Y1961D01*
X2575Y1961D02*
X2585Y1961D01*
X2623Y1961D02*
X2630Y1961D01*
X2671Y1961D02*
X2679Y1961D01*
X2759Y1961D02*
X2769Y1961D01*
X2807Y1961D02*
X2814Y1961D01*
X2855Y1961D02*
X2863Y1961D01*
X2943Y1961D02*
X2953Y1961D01*
X2991Y1961D02*
X2998Y1961D01*
X3039Y1961D02*
X3047Y1961D01*
X2025Y1960D02*
X2034Y1960D01*
X2071Y1960D02*
X2079Y1960D01*
X2120Y1960D02*
X2127Y1960D01*
X2208Y1960D02*
X2218Y1960D01*
X2255Y1960D02*
X2263Y1960D01*
X2304Y1960D02*
X2311Y1960D01*
X2392Y1960D02*
X2401Y1960D01*
X2439Y1960D02*
X2447Y1960D01*
X2488Y1960D02*
X2495Y1960D01*
X2576Y1960D02*
X2585Y1960D01*
X2623Y1960D02*
X2630Y1960D01*
X2671Y1960D02*
X2679Y1960D01*
X2760Y1960D02*
X2769Y1960D01*
X2807Y1960D02*
X2814Y1960D01*
X2855Y1960D02*
X2863Y1960D01*
X2944Y1960D02*
X2953Y1960D01*
X2991Y1960D02*
X2998Y1960D01*
X3039Y1960D02*
X3047Y1960D01*
X2026Y1959D02*
X2034Y1959D01*
X2071Y1959D02*
X2079Y1959D01*
X2120Y1959D02*
X2127Y1959D01*
X2209Y1959D02*
X2218Y1959D01*
X2255Y1959D02*
X2263Y1959D01*
X2304Y1959D02*
X2311Y1959D01*
X2393Y1959D02*
X2402Y1959D01*
X2439Y1959D02*
X2447Y1959D01*
X2488Y1959D02*
X2495Y1959D01*
X2577Y1959D02*
X2586Y1959D01*
X2623Y1959D02*
X2630Y1959D01*
X2671Y1959D02*
X2679Y1959D01*
X2761Y1959D02*
X2769Y1959D01*
X2807Y1959D02*
X2814Y1959D01*
X2855Y1959D02*
X2863Y1959D01*
X2945Y1959D02*
X2953Y1959D01*
X2991Y1959D02*
X2998Y1959D01*
X3039Y1959D02*
X3047Y1959D01*
X2026Y1958D02*
X2034Y1958D01*
X2071Y1958D02*
X2079Y1958D01*
X2120Y1958D02*
X2127Y1958D01*
X2210Y1958D02*
X2218Y1958D01*
X2255Y1958D02*
X2263Y1958D01*
X2304Y1958D02*
X2311Y1958D01*
X2394Y1958D02*
X2402Y1958D01*
X2439Y1958D02*
X2447Y1958D01*
X2488Y1958D02*
X2495Y1958D01*
X2578Y1958D02*
X2586Y1958D01*
X2623Y1958D02*
X2630Y1958D01*
X2671Y1958D02*
X2679Y1958D01*
X2762Y1958D02*
X2770Y1958D01*
X2807Y1958D02*
X2814Y1958D01*
X2855Y1958D02*
X2863Y1958D01*
X2946Y1958D02*
X2953Y1958D01*
X2991Y1958D02*
X2998Y1958D01*
X3039Y1958D02*
X3047Y1958D01*
X2027Y1957D02*
X2034Y1957D01*
X2071Y1957D02*
X2079Y1957D01*
X2120Y1957D02*
X2127Y1957D01*
X2210Y1957D02*
X2218Y1957D01*
X2255Y1957D02*
X2263Y1957D01*
X2304Y1957D02*
X2311Y1957D01*
X2394Y1957D02*
X2402Y1957D01*
X2439Y1957D02*
X2447Y1957D01*
X2488Y1957D02*
X2495Y1957D01*
X2578Y1957D02*
X2586Y1957D01*
X2623Y1957D02*
X2630Y1957D01*
X2671Y1957D02*
X2679Y1957D01*
X2762Y1957D02*
X2770Y1957D01*
X2807Y1957D02*
X2814Y1957D01*
X2855Y1957D02*
X2863Y1957D01*
X2946Y1957D02*
X2954Y1957D01*
X2991Y1957D02*
X2998Y1957D01*
X3039Y1957D02*
X3047Y1957D01*
X2027Y1956D02*
X2034Y1956D01*
X2071Y1956D02*
X2079Y1956D01*
X2120Y1956D02*
X2127Y1956D01*
X2211Y1956D02*
X2218Y1956D01*
X2255Y1956D02*
X2263Y1956D01*
X2304Y1956D02*
X2311Y1956D01*
X2394Y1956D02*
X2402Y1956D01*
X2439Y1956D02*
X2447Y1956D01*
X2488Y1956D02*
X2495Y1956D01*
X2578Y1956D02*
X2586Y1956D01*
X2623Y1956D02*
X2630Y1956D01*
X2671Y1956D02*
X2679Y1956D01*
X2762Y1956D02*
X2770Y1956D01*
X2807Y1956D02*
X2814Y1956D01*
X2855Y1956D02*
X2863Y1956D01*
X2946Y1956D02*
X2954Y1956D01*
X2991Y1956D02*
X2998Y1956D01*
X3039Y1956D02*
X3047Y1956D01*
X2027Y1955D02*
X2034Y1955D01*
X2071Y1955D02*
X2079Y1955D01*
X2120Y1955D02*
X2127Y1955D01*
X2211Y1955D02*
X2218Y1955D01*
X2255Y1955D02*
X2263Y1955D01*
X2304Y1955D02*
X2311Y1955D01*
X2394Y1955D02*
X2402Y1955D01*
X2439Y1955D02*
X2447Y1955D01*
X2488Y1955D02*
X2495Y1955D01*
X2578Y1955D02*
X2586Y1955D01*
X2623Y1955D02*
X2630Y1955D01*
X2671Y1955D02*
X2679Y1955D01*
X2762Y1955D02*
X2770Y1955D01*
X2807Y1955D02*
X2814Y1955D01*
X2855Y1955D02*
X2863Y1955D01*
X2946Y1955D02*
X2954Y1955D01*
X2991Y1955D02*
X2998Y1955D01*
X3039Y1955D02*
X3047Y1955D01*
X2027Y1954D02*
X2034Y1954D01*
X2071Y1954D02*
X2079Y1954D01*
X2120Y1954D02*
X2127Y1954D01*
X2211Y1954D02*
X2218Y1954D01*
X2255Y1954D02*
X2263Y1954D01*
X2304Y1954D02*
X2311Y1954D01*
X2394Y1954D02*
X2402Y1954D01*
X2439Y1954D02*
X2447Y1954D01*
X2488Y1954D02*
X2495Y1954D01*
X2578Y1954D02*
X2586Y1954D01*
X2623Y1954D02*
X2630Y1954D01*
X2671Y1954D02*
X2679Y1954D01*
X2762Y1954D02*
X2770Y1954D01*
X2807Y1954D02*
X2814Y1954D01*
X2855Y1954D02*
X2863Y1954D01*
X2946Y1954D02*
X2954Y1954D01*
X2991Y1954D02*
X2998Y1954D01*
X3039Y1954D02*
X3047Y1954D01*
X2027Y1953D02*
X2034Y1953D01*
X2071Y1953D02*
X2079Y1953D01*
X2120Y1953D02*
X2127Y1953D01*
X2211Y1953D02*
X2218Y1953D01*
X2255Y1953D02*
X2263Y1953D01*
X2304Y1953D02*
X2311Y1953D01*
X2394Y1953D02*
X2402Y1953D01*
X2439Y1953D02*
X2447Y1953D01*
X2488Y1953D02*
X2495Y1953D01*
X2578Y1953D02*
X2586Y1953D01*
X2623Y1953D02*
X2630Y1953D01*
X2671Y1953D02*
X2679Y1953D01*
X2762Y1953D02*
X2770Y1953D01*
X2807Y1953D02*
X2814Y1953D01*
X2855Y1953D02*
X2863Y1953D01*
X2946Y1953D02*
X2954Y1953D01*
X2991Y1953D02*
X2998Y1953D01*
X3039Y1953D02*
X3047Y1953D01*
X2027Y1952D02*
X2034Y1952D01*
X2071Y1952D02*
X2079Y1952D01*
X2120Y1952D02*
X2127Y1952D01*
X2211Y1952D02*
X2218Y1952D01*
X2255Y1952D02*
X2263Y1952D01*
X2304Y1952D02*
X2311Y1952D01*
X2394Y1952D02*
X2402Y1952D01*
X2439Y1952D02*
X2447Y1952D01*
X2488Y1952D02*
X2495Y1952D01*
X2578Y1952D02*
X2586Y1952D01*
X2623Y1952D02*
X2630Y1952D01*
X2671Y1952D02*
X2679Y1952D01*
X2762Y1952D02*
X2770Y1952D01*
X2807Y1952D02*
X2814Y1952D01*
X2855Y1952D02*
X2863Y1952D01*
X2946Y1952D02*
X2954Y1952D01*
X2991Y1952D02*
X2998Y1952D01*
X3039Y1952D02*
X3047Y1952D01*
X2027Y1951D02*
X2034Y1951D01*
X2071Y1951D02*
X2079Y1951D01*
X2120Y1951D02*
X2127Y1951D01*
X2211Y1951D02*
X2218Y1951D01*
X2255Y1951D02*
X2263Y1951D01*
X2304Y1951D02*
X2311Y1951D01*
X2394Y1951D02*
X2402Y1951D01*
X2439Y1951D02*
X2447Y1951D01*
X2488Y1951D02*
X2495Y1951D01*
X2578Y1951D02*
X2586Y1951D01*
X2623Y1951D02*
X2630Y1951D01*
X2671Y1951D02*
X2679Y1951D01*
X2762Y1951D02*
X2770Y1951D01*
X2807Y1951D02*
X2814Y1951D01*
X2855Y1951D02*
X2863Y1951D01*
X2946Y1951D02*
X2954Y1951D01*
X2991Y1951D02*
X2998Y1951D01*
X3039Y1951D02*
X3047Y1951D01*
X2027Y1950D02*
X2034Y1950D01*
X2071Y1950D02*
X2079Y1950D01*
X2120Y1950D02*
X2127Y1950D01*
X2211Y1950D02*
X2218Y1950D01*
X2255Y1950D02*
X2263Y1950D01*
X2304Y1950D02*
X2311Y1950D01*
X2394Y1950D02*
X2402Y1950D01*
X2439Y1950D02*
X2447Y1950D01*
X2488Y1950D02*
X2495Y1950D01*
X2578Y1950D02*
X2586Y1950D01*
X2623Y1950D02*
X2630Y1950D01*
X2671Y1950D02*
X2679Y1950D01*
X2762Y1950D02*
X2770Y1950D01*
X2807Y1950D02*
X2814Y1950D01*
X2855Y1950D02*
X2863Y1950D01*
X2946Y1950D02*
X2954Y1950D01*
X2991Y1950D02*
X2998Y1950D01*
X3039Y1950D02*
X3047Y1950D01*
X2027Y1949D02*
X2034Y1949D01*
X2071Y1949D02*
X2079Y1949D01*
X2120Y1949D02*
X2127Y1949D01*
X2211Y1949D02*
X2218Y1949D01*
X2255Y1949D02*
X2263Y1949D01*
X2304Y1949D02*
X2311Y1949D01*
X2394Y1949D02*
X2402Y1949D01*
X2439Y1949D02*
X2447Y1949D01*
X2488Y1949D02*
X2495Y1949D01*
X2578Y1949D02*
X2586Y1949D01*
X2623Y1949D02*
X2630Y1949D01*
X2671Y1949D02*
X2679Y1949D01*
X2762Y1949D02*
X2770Y1949D01*
X2807Y1949D02*
X2814Y1949D01*
X2855Y1949D02*
X2863Y1949D01*
X2946Y1949D02*
X2954Y1949D01*
X2991Y1949D02*
X2998Y1949D01*
X3039Y1949D02*
X3047Y1949D01*
X2027Y1948D02*
X2034Y1948D01*
X2071Y1948D02*
X2079Y1948D01*
X2120Y1948D02*
X2127Y1948D01*
X2211Y1948D02*
X2218Y1948D01*
X2255Y1948D02*
X2263Y1948D01*
X2304Y1948D02*
X2311Y1948D01*
X2394Y1948D02*
X2402Y1948D01*
X2439Y1948D02*
X2447Y1948D01*
X2488Y1948D02*
X2495Y1948D01*
X2578Y1948D02*
X2586Y1948D01*
X2623Y1948D02*
X2630Y1948D01*
X2671Y1948D02*
X2679Y1948D01*
X2762Y1948D02*
X2770Y1948D01*
X2807Y1948D02*
X2814Y1948D01*
X2855Y1948D02*
X2863Y1948D01*
X2946Y1948D02*
X2954Y1948D01*
X2991Y1948D02*
X2998Y1948D01*
X3039Y1948D02*
X3047Y1948D01*
X2027Y1947D02*
X2034Y1947D01*
X2071Y1947D02*
X2079Y1947D01*
X2120Y1947D02*
X2127Y1947D01*
X2211Y1947D02*
X2218Y1947D01*
X2255Y1947D02*
X2263Y1947D01*
X2304Y1947D02*
X2311Y1947D01*
X2394Y1947D02*
X2402Y1947D01*
X2439Y1947D02*
X2447Y1947D01*
X2488Y1947D02*
X2495Y1947D01*
X2578Y1947D02*
X2586Y1947D01*
X2623Y1947D02*
X2630Y1947D01*
X2671Y1947D02*
X2679Y1947D01*
X2762Y1947D02*
X2770Y1947D01*
X2807Y1947D02*
X2814Y1947D01*
X2855Y1947D02*
X2863Y1947D01*
X2946Y1947D02*
X2954Y1947D01*
X2991Y1947D02*
X2998Y1947D01*
X3039Y1947D02*
X3047Y1947D01*
X2027Y1946D02*
X2034Y1946D01*
X2071Y1946D02*
X2079Y1946D01*
X2120Y1946D02*
X2127Y1946D01*
X2211Y1946D02*
X2218Y1946D01*
X2255Y1946D02*
X2263Y1946D01*
X2304Y1946D02*
X2311Y1946D01*
X2394Y1946D02*
X2402Y1946D01*
X2439Y1946D02*
X2447Y1946D01*
X2488Y1946D02*
X2495Y1946D01*
X2578Y1946D02*
X2586Y1946D01*
X2623Y1946D02*
X2630Y1946D01*
X2671Y1946D02*
X2679Y1946D01*
X2762Y1946D02*
X2770Y1946D01*
X2807Y1946D02*
X2814Y1946D01*
X2855Y1946D02*
X2863Y1946D01*
X2946Y1946D02*
X2954Y1946D01*
X2991Y1946D02*
X2998Y1946D01*
X3039Y1946D02*
X3047Y1946D01*
X2027Y1945D02*
X2034Y1945D01*
X2071Y1945D02*
X2079Y1945D01*
X2120Y1945D02*
X2127Y1945D01*
X2210Y1945D02*
X2218Y1945D01*
X2255Y1945D02*
X2263Y1945D01*
X2304Y1945D02*
X2311Y1945D01*
X2394Y1945D02*
X2402Y1945D01*
X2439Y1945D02*
X2447Y1945D01*
X2488Y1945D02*
X2495Y1945D01*
X2578Y1945D02*
X2586Y1945D01*
X2623Y1945D02*
X2630Y1945D01*
X2671Y1945D02*
X2679Y1945D01*
X2762Y1945D02*
X2770Y1945D01*
X2807Y1945D02*
X2814Y1945D01*
X2855Y1945D02*
X2863Y1945D01*
X2946Y1945D02*
X2954Y1945D01*
X2991Y1945D02*
X2998Y1945D01*
X3039Y1945D02*
X3047Y1945D01*
X2026Y1944D02*
X2034Y1944D01*
X2071Y1944D02*
X2079Y1944D01*
X2120Y1944D02*
X2127Y1944D01*
X2210Y1944D02*
X2218Y1944D01*
X2255Y1944D02*
X2263Y1944D01*
X2304Y1944D02*
X2311Y1944D01*
X2394Y1944D02*
X2402Y1944D01*
X2439Y1944D02*
X2447Y1944D01*
X2488Y1944D02*
X2495Y1944D01*
X2578Y1944D02*
X2586Y1944D01*
X2623Y1944D02*
X2630Y1944D01*
X2671Y1944D02*
X2679Y1944D01*
X2762Y1944D02*
X2770Y1944D01*
X2807Y1944D02*
X2814Y1944D01*
X2855Y1944D02*
X2863Y1944D01*
X2945Y1944D02*
X2953Y1944D01*
X2991Y1944D02*
X2998Y1944D01*
X3039Y1944D02*
X3047Y1944D01*
X2025Y1943D02*
X2034Y1943D01*
X2071Y1943D02*
X2079Y1943D01*
X2120Y1943D02*
X2127Y1943D01*
X2209Y1943D02*
X2218Y1943D01*
X2255Y1943D02*
X2263Y1943D01*
X2304Y1943D02*
X2311Y1943D01*
X2393Y1943D02*
X2402Y1943D01*
X2439Y1943D02*
X2447Y1943D01*
X2488Y1943D02*
X2495Y1943D01*
X2577Y1943D02*
X2586Y1943D01*
X2623Y1943D02*
X2630Y1943D01*
X2671Y1943D02*
X2679Y1943D01*
X2761Y1943D02*
X2769Y1943D01*
X2807Y1943D02*
X2814Y1943D01*
X2855Y1943D02*
X2863Y1943D01*
X2945Y1943D02*
X2953Y1943D01*
X2991Y1943D02*
X2998Y1943D01*
X3039Y1943D02*
X3047Y1943D01*
X2024Y1942D02*
X2034Y1942D01*
X2071Y1942D02*
X2079Y1942D01*
X2120Y1942D02*
X2127Y1942D01*
X2208Y1942D02*
X2217Y1942D01*
X2255Y1942D02*
X2263Y1942D01*
X2304Y1942D02*
X2311Y1942D01*
X2392Y1942D02*
X2401Y1942D01*
X2439Y1942D02*
X2447Y1942D01*
X2488Y1942D02*
X2495Y1942D01*
X2576Y1942D02*
X2585Y1942D01*
X2623Y1942D02*
X2630Y1942D01*
X2671Y1942D02*
X2679Y1942D01*
X2760Y1942D02*
X2769Y1942D01*
X2807Y1942D02*
X2814Y1942D01*
X2855Y1942D02*
X2863Y1942D01*
X2944Y1942D02*
X2953Y1942D01*
X2991Y1942D02*
X2998Y1942D01*
X3039Y1942D02*
X3047Y1942D01*
X2023Y1941D02*
X2033Y1941D01*
X2071Y1941D02*
X2079Y1941D01*
X2120Y1941D02*
X2127Y1941D01*
X2207Y1941D02*
X2217Y1941D01*
X2255Y1941D02*
X2263Y1941D01*
X2304Y1941D02*
X2311Y1941D01*
X2391Y1941D02*
X2401Y1941D01*
X2439Y1941D02*
X2447Y1941D01*
X2488Y1941D02*
X2495Y1941D01*
X2575Y1941D02*
X2585Y1941D01*
X2623Y1941D02*
X2630Y1941D01*
X2671Y1941D02*
X2679Y1941D01*
X2759Y1941D02*
X2769Y1941D01*
X2807Y1941D02*
X2814Y1941D01*
X2855Y1941D02*
X2863Y1941D01*
X2942Y1941D02*
X2953Y1941D01*
X2991Y1941D02*
X2998Y1941D01*
X3039Y1941D02*
X3047Y1941D01*
X2022Y1940D02*
X2033Y1940D01*
X2071Y1940D02*
X2079Y1940D01*
X2120Y1940D02*
X2127Y1940D01*
X2206Y1940D02*
X2217Y1940D01*
X2255Y1940D02*
X2263Y1940D01*
X2304Y1940D02*
X2311Y1940D01*
X2390Y1940D02*
X2401Y1940D01*
X2439Y1940D02*
X2447Y1940D01*
X2488Y1940D02*
X2495Y1940D01*
X2574Y1940D02*
X2584Y1940D01*
X2623Y1940D02*
X2630Y1940D01*
X2671Y1940D02*
X2679Y1940D01*
X2757Y1940D02*
X2768Y1940D01*
X2807Y1940D02*
X2814Y1940D01*
X2855Y1940D02*
X2863Y1940D01*
X2941Y1940D02*
X2952Y1940D01*
X2991Y1940D02*
X2998Y1940D01*
X3039Y1940D02*
X3047Y1940D01*
X2021Y1939D02*
X2032Y1939D01*
X2071Y1939D02*
X2079Y1939D01*
X2120Y1939D02*
X2127Y1939D01*
X2205Y1939D02*
X2216Y1939D01*
X2255Y1939D02*
X2263Y1939D01*
X2304Y1939D02*
X2311Y1939D01*
X2389Y1939D02*
X2400Y1939D01*
X2439Y1939D02*
X2447Y1939D01*
X2488Y1939D02*
X2495Y1939D01*
X2572Y1939D02*
X2584Y1939D01*
X2623Y1939D02*
X2630Y1939D01*
X2671Y1939D02*
X2679Y1939D01*
X2756Y1939D02*
X2768Y1939D01*
X2807Y1939D02*
X2814Y1939D01*
X2855Y1939D02*
X2863Y1939D01*
X2940Y1939D02*
X2952Y1939D01*
X2991Y1939D02*
X2998Y1939D01*
X3039Y1939D02*
X3047Y1939D01*
X2020Y1938D02*
X2031Y1938D01*
X2071Y1938D02*
X2079Y1938D01*
X2120Y1938D02*
X2127Y1938D01*
X2203Y1938D02*
X2215Y1938D01*
X2255Y1938D02*
X2263Y1938D01*
X2304Y1938D02*
X2311Y1938D01*
X2387Y1938D02*
X2399Y1938D01*
X2439Y1938D02*
X2447Y1938D01*
X2488Y1938D02*
X2495Y1938D01*
X2571Y1938D02*
X2583Y1938D01*
X2623Y1938D02*
X2630Y1938D01*
X2671Y1938D02*
X2679Y1938D01*
X2755Y1938D02*
X2767Y1938D01*
X2807Y1938D02*
X2814Y1938D01*
X2855Y1938D02*
X2863Y1938D01*
X2939Y1938D02*
X2951Y1938D01*
X2991Y1938D02*
X2998Y1938D01*
X3039Y1938D02*
X3047Y1938D01*
X2018Y1937D02*
X2030Y1937D01*
X2071Y1937D02*
X2079Y1937D01*
X2120Y1937D02*
X2127Y1937D01*
X2202Y1937D02*
X2214Y1937D01*
X2255Y1937D02*
X2263Y1937D01*
X2304Y1937D02*
X2311Y1937D01*
X2386Y1937D02*
X2398Y1937D01*
X2439Y1937D02*
X2447Y1937D01*
X2488Y1937D02*
X2495Y1937D01*
X2570Y1937D02*
X2582Y1937D01*
X2623Y1937D02*
X2630Y1937D01*
X2671Y1937D02*
X2679Y1937D01*
X2754Y1937D02*
X2766Y1937D01*
X2807Y1937D02*
X2814Y1937D01*
X2855Y1937D02*
X2863Y1937D01*
X2938Y1937D02*
X2950Y1937D01*
X2991Y1937D02*
X2998Y1937D01*
X3039Y1937D02*
X3047Y1937D01*
X2017Y1936D02*
X2029Y1936D01*
X2071Y1936D02*
X2079Y1936D01*
X2120Y1936D02*
X2127Y1936D01*
X2201Y1936D02*
X2213Y1936D01*
X2255Y1936D02*
X2263Y1936D01*
X2304Y1936D02*
X2311Y1936D01*
X2385Y1936D02*
X2397Y1936D01*
X2439Y1936D02*
X2447Y1936D01*
X2488Y1936D02*
X2495Y1936D01*
X2569Y1936D02*
X2581Y1936D01*
X2623Y1936D02*
X2630Y1936D01*
X2671Y1936D02*
X2679Y1936D01*
X2752Y1936D02*
X2765Y1936D01*
X2807Y1936D02*
X2814Y1936D01*
X2855Y1936D02*
X2863Y1936D01*
X2936Y1936D02*
X2949Y1936D01*
X2990Y1936D02*
X2998Y1936D01*
X3039Y1936D02*
X3047Y1936D01*
X1995Y1935D02*
X2028Y1935D01*
X2061Y1935D02*
X2089Y1935D01*
X2120Y1935D02*
X2127Y1935D01*
X2179Y1935D02*
X2212Y1935D01*
X2245Y1935D02*
X2273Y1935D01*
X2304Y1935D02*
X2311Y1935D01*
X2363Y1935D02*
X2396Y1935D01*
X2429Y1935D02*
X2457Y1935D01*
X2488Y1935D02*
X2495Y1935D01*
X2547Y1935D02*
X2580Y1935D01*
X2612Y1935D02*
X2641Y1935D01*
X2671Y1935D02*
X2679Y1935D01*
X2731Y1935D02*
X2764Y1935D01*
X2796Y1935D02*
X2825Y1935D01*
X2855Y1935D02*
X2863Y1935D01*
X2915Y1935D02*
X2948Y1935D01*
X2980Y1935D02*
X3008Y1935D01*
X3039Y1935D02*
X3047Y1935D01*
X1994Y1934D02*
X2027Y1934D01*
X2060Y1934D02*
X2090Y1934D01*
X2120Y1934D02*
X2127Y1934D01*
X2178Y1934D02*
X2211Y1934D01*
X2244Y1934D02*
X2274Y1934D01*
X2304Y1934D02*
X2311Y1934D01*
X2362Y1934D02*
X2395Y1934D01*
X2427Y1934D02*
X2458Y1934D01*
X2488Y1934D02*
X2495Y1934D01*
X2546Y1934D02*
X2579Y1934D01*
X2611Y1934D02*
X2642Y1934D01*
X2671Y1934D02*
X2679Y1934D01*
X2730Y1934D02*
X2763Y1934D01*
X2795Y1934D02*
X2826Y1934D01*
X2855Y1934D02*
X2863Y1934D01*
X2913Y1934D02*
X2946Y1934D01*
X2979Y1934D02*
X3010Y1934D01*
X3039Y1934D02*
X3047Y1934D01*
X1993Y1933D02*
X2026Y1933D01*
X2059Y1933D02*
X2091Y1933D01*
X2120Y1933D02*
X2127Y1933D01*
X2177Y1933D02*
X2210Y1933D01*
X2243Y1933D02*
X2275Y1933D01*
X2304Y1933D02*
X2311Y1933D01*
X2361Y1933D02*
X2394Y1933D01*
X2427Y1933D02*
X2459Y1933D01*
X2488Y1933D02*
X2495Y1933D01*
X2545Y1933D02*
X2578Y1933D01*
X2611Y1933D02*
X2643Y1933D01*
X2671Y1933D02*
X2679Y1933D01*
X2729Y1933D02*
X2761Y1933D01*
X2794Y1933D02*
X2826Y1933D01*
X2855Y1933D02*
X2863Y1933D01*
X2913Y1933D02*
X2945Y1933D01*
X2978Y1933D02*
X3010Y1933D01*
X3039Y1933D02*
X3047Y1933D01*
X1993Y1932D02*
X2025Y1932D01*
X2059Y1932D02*
X2091Y1932D01*
X2120Y1932D02*
X2127Y1932D01*
X2177Y1932D02*
X2209Y1932D01*
X2243Y1932D02*
X2275Y1932D01*
X2304Y1932D02*
X2311Y1932D01*
X2361Y1932D02*
X2393Y1932D01*
X2426Y1932D02*
X2459Y1932D01*
X2488Y1932D02*
X2495Y1932D01*
X2545Y1932D02*
X2576Y1932D01*
X2610Y1932D02*
X2643Y1932D01*
X2671Y1932D02*
X2679Y1932D01*
X2729Y1932D02*
X2760Y1932D01*
X2794Y1932D02*
X2827Y1932D01*
X2855Y1932D02*
X2863Y1932D01*
X2913Y1932D02*
X2944Y1932D01*
X2978Y1932D02*
X3011Y1932D01*
X3039Y1932D02*
X3047Y1932D01*
X1993Y1931D02*
X2024Y1931D01*
X2059Y1931D02*
X2091Y1931D01*
X2120Y1931D02*
X2127Y1931D01*
X2177Y1931D02*
X2208Y1931D01*
X2243Y1931D02*
X2275Y1931D01*
X2304Y1931D02*
X2311Y1931D01*
X2361Y1931D02*
X2391Y1931D01*
X2426Y1931D02*
X2459Y1931D01*
X2488Y1931D02*
X2495Y1931D01*
X2545Y1931D02*
X2575Y1931D01*
X2610Y1931D02*
X2643Y1931D01*
X2671Y1931D02*
X2679Y1931D01*
X2729Y1931D02*
X2759Y1931D01*
X2794Y1931D02*
X2827Y1931D01*
X2855Y1931D02*
X2863Y1931D01*
X2912Y1931D02*
X2943Y1931D01*
X2978Y1931D02*
X3011Y1931D01*
X3039Y1931D02*
X3047Y1931D01*
X1993Y1930D02*
X2022Y1930D01*
X2059Y1930D02*
X2091Y1930D01*
X2120Y1930D02*
X2127Y1930D01*
X2177Y1930D02*
X2206Y1930D01*
X2243Y1930D02*
X2275Y1930D01*
X2304Y1930D02*
X2311Y1930D01*
X2361Y1930D02*
X2390Y1930D01*
X2427Y1930D02*
X2459Y1930D01*
X2488Y1930D02*
X2495Y1930D01*
X2545Y1930D02*
X2574Y1930D01*
X2610Y1930D02*
X2643Y1930D01*
X2671Y1930D02*
X2679Y1930D01*
X2729Y1930D02*
X2758Y1930D01*
X2794Y1930D02*
X2827Y1930D01*
X2855Y1930D02*
X2863Y1930D01*
X2913Y1930D02*
X2942Y1930D01*
X2978Y1930D02*
X3010Y1930D01*
X3039Y1930D02*
X3047Y1930D01*
X1994Y1929D02*
X2021Y1929D01*
X2059Y1929D02*
X2091Y1929D01*
X2120Y1929D02*
X2127Y1929D01*
X2178Y1929D02*
X2205Y1929D01*
X2243Y1929D02*
X2274Y1929D01*
X2304Y1929D02*
X2311Y1929D01*
X2362Y1929D02*
X2389Y1929D01*
X2427Y1929D02*
X2458Y1929D01*
X2488Y1929D02*
X2495Y1929D01*
X2545Y1929D02*
X2573Y1929D01*
X2611Y1929D02*
X2642Y1929D01*
X2671Y1929D02*
X2679Y1929D01*
X2729Y1929D02*
X2757Y1929D01*
X2795Y1929D02*
X2826Y1929D01*
X2855Y1929D02*
X2863Y1929D01*
X2913Y1929D02*
X2940Y1929D01*
X2979Y1929D02*
X3010Y1929D01*
X3039Y1929D02*
X3047Y1929D01*
X1995Y1928D02*
X2019Y1928D01*
X2060Y1928D02*
X2090Y1928D01*
X2120Y1928D02*
X2127Y1928D01*
X2179Y1928D02*
X2203Y1928D01*
X2244Y1928D02*
X2274Y1928D01*
X2304Y1928D02*
X2311Y1928D01*
X2363Y1928D02*
X2387Y1928D01*
X2428Y1928D02*
X2457Y1928D01*
X2488Y1928D02*
X2495Y1928D01*
X2546Y1928D02*
X2571Y1928D01*
X2612Y1928D02*
X2641Y1928D01*
X2671Y1928D02*
X2679Y1928D01*
X2730Y1928D02*
X2755Y1928D01*
X2796Y1928D02*
X2825Y1928D01*
X2855Y1928D02*
X2863Y1928D01*
X2914Y1928D02*
X2939Y1928D01*
X2980Y1928D02*
X3009Y1928D01*
X3039Y1928D02*
X3047Y1928D01*
X2120Y1927D02*
X2127Y1927D01*
X2304Y1927D02*
X2311Y1927D01*
X2488Y1927D02*
X2495Y1927D01*
X2671Y1927D02*
X2679Y1927D01*
X2855Y1927D02*
X2863Y1927D01*
X3039Y1927D02*
X3047Y1927D01*
X2120Y1926D02*
X2127Y1926D01*
X2304Y1926D02*
X2311Y1926D01*
X2488Y1926D02*
X2495Y1926D01*
X2671Y1926D02*
X2679Y1926D01*
X2855Y1926D02*
X2863Y1926D01*
X3039Y1926D02*
X3047Y1926D01*
X2120Y1925D02*
X2127Y1925D01*
X2304Y1925D02*
X2311Y1925D01*
X2488Y1925D02*
X2495Y1925D01*
X2671Y1925D02*
X2679Y1925D01*
X2855Y1925D02*
X2863Y1925D01*
X3039Y1925D02*
X3047Y1925D01*
X2120Y1924D02*
X2127Y1924D01*
X2147Y1924D02*
X2151Y1924D01*
X2304Y1924D02*
X2311Y1924D01*
X2331Y1924D02*
X2335Y1924D01*
X2488Y1924D02*
X2495Y1924D01*
X2515Y1924D02*
X2519Y1924D01*
X2671Y1924D02*
X2679Y1924D01*
X2699Y1924D02*
X2702Y1924D01*
X2855Y1924D02*
X2863Y1924D01*
X2883Y1924D02*
X2886Y1924D01*
X3039Y1924D02*
X3047Y1924D01*
X3066Y1924D02*
X3070Y1924D01*
X2120Y1923D02*
X2127Y1923D01*
X2146Y1923D02*
X2152Y1923D01*
X2304Y1923D02*
X2311Y1923D01*
X2330Y1923D02*
X2336Y1923D01*
X2488Y1923D02*
X2495Y1923D01*
X2514Y1923D02*
X2520Y1923D01*
X2671Y1923D02*
X2679Y1923D01*
X2698Y1923D02*
X2703Y1923D01*
X2855Y1923D02*
X2863Y1923D01*
X2882Y1923D02*
X2887Y1923D01*
X3039Y1923D02*
X3047Y1923D01*
X3066Y1923D02*
X3071Y1923D01*
X2120Y1922D02*
X2127Y1922D01*
X2146Y1922D02*
X2152Y1922D01*
X2304Y1922D02*
X2311Y1922D01*
X2330Y1922D02*
X2336Y1922D01*
X2488Y1922D02*
X2495Y1922D01*
X2513Y1922D02*
X2520Y1922D01*
X2671Y1922D02*
X2679Y1922D01*
X2697Y1922D02*
X2704Y1922D01*
X2855Y1922D02*
X2863Y1922D01*
X2881Y1922D02*
X2888Y1922D01*
X3039Y1922D02*
X3047Y1922D01*
X3065Y1922D02*
X3072Y1922D01*
X2120Y1921D02*
X2128Y1921D01*
X2145Y1921D02*
X2153Y1921D01*
X2304Y1921D02*
X2311Y1921D01*
X2329Y1921D02*
X2336Y1921D01*
X2488Y1921D02*
X2495Y1921D01*
X2513Y1921D02*
X2520Y1921D01*
X2672Y1921D02*
X2679Y1921D01*
X2697Y1921D02*
X2704Y1921D01*
X2855Y1921D02*
X2863Y1921D01*
X2881Y1921D02*
X2888Y1921D01*
X3039Y1921D02*
X3047Y1921D01*
X3064Y1921D02*
X3072Y1921D01*
X2120Y1920D02*
X2128Y1920D01*
X2145Y1920D02*
X2153Y1920D01*
X2304Y1920D02*
X2312Y1920D01*
X2328Y1920D02*
X2337Y1920D01*
X2488Y1920D02*
X2496Y1920D01*
X2512Y1920D02*
X2520Y1920D01*
X2672Y1920D02*
X2679Y1920D01*
X2696Y1920D02*
X2704Y1920D01*
X2856Y1920D02*
X2863Y1920D01*
X2880Y1920D02*
X2888Y1920D01*
X3039Y1920D02*
X3047Y1920D01*
X3064Y1920D02*
X3072Y1920D01*
X2120Y1919D02*
X2129Y1919D01*
X2144Y1919D02*
X2153Y1919D01*
X2304Y1919D02*
X2312Y1919D01*
X2328Y1919D02*
X2336Y1919D01*
X2488Y1919D02*
X2496Y1919D01*
X2512Y1919D02*
X2520Y1919D01*
X2672Y1919D02*
X2680Y1919D01*
X2696Y1919D02*
X2704Y1919D01*
X2856Y1919D02*
X2864Y1919D01*
X2879Y1919D02*
X2888Y1919D01*
X3040Y1919D02*
X3048Y1919D01*
X3063Y1919D02*
X3072Y1919D01*
X2121Y1918D02*
X2130Y1918D01*
X2143Y1918D02*
X2152Y1918D01*
X2304Y1918D02*
X2314Y1918D01*
X2327Y1918D02*
X2336Y1918D01*
X2488Y1918D02*
X2498Y1918D01*
X2510Y1918D02*
X2520Y1918D01*
X2672Y1918D02*
X2682Y1918D01*
X2694Y1918D02*
X2704Y1918D01*
X2856Y1918D02*
X2866Y1918D01*
X2878Y1918D02*
X2888Y1918D01*
X3040Y1918D02*
X3049Y1918D01*
X3062Y1918D02*
X3072Y1918D01*
X2121Y1917D02*
X2152Y1917D01*
X2305Y1917D02*
X2336Y1917D01*
X2489Y1917D02*
X2520Y1917D01*
X2672Y1917D02*
X2704Y1917D01*
X2856Y1917D02*
X2887Y1917D01*
X3040Y1917D02*
X3071Y1917D01*
X2121Y1916D02*
X2152Y1916D01*
X2305Y1916D02*
X2335Y1916D01*
X2489Y1916D02*
X2519Y1916D01*
X2673Y1916D02*
X2703Y1916D01*
X2857Y1916D02*
X2887Y1916D01*
X3041Y1916D02*
X3071Y1916D01*
X2122Y1915D02*
X2151Y1915D01*
X2306Y1915D02*
X2335Y1915D01*
X2490Y1915D02*
X2519Y1915D01*
X2673Y1915D02*
X2702Y1915D01*
X2857Y1915D02*
X2886Y1915D01*
X3041Y1915D02*
X3070Y1915D01*
X2123Y1914D02*
X2150Y1914D01*
X2306Y1914D02*
X2334Y1914D01*
X2490Y1914D02*
X2518Y1914D01*
X2674Y1914D02*
X2702Y1914D01*
X2858Y1914D02*
X2886Y1914D01*
X3042Y1914D02*
X3069Y1914D01*
X2123Y1913D02*
X2149Y1913D01*
X2307Y1913D02*
X2333Y1913D01*
X2491Y1913D02*
X2517Y1913D01*
X2675Y1913D02*
X2701Y1913D01*
X2859Y1913D02*
X2885Y1913D01*
X3043Y1913D02*
X3069Y1913D01*
X2125Y1912D02*
X2148Y1912D01*
X2308Y1912D02*
X2332Y1912D01*
X2492Y1912D02*
X2516Y1912D01*
X2676Y1912D02*
X2700Y1912D01*
X2860Y1912D02*
X2884Y1912D01*
X3044Y1912D02*
X3067Y1912D01*
X2126Y1911D02*
X2147Y1911D01*
X2310Y1911D02*
X2330Y1911D01*
X2494Y1911D02*
X2514Y1911D01*
X2678Y1911D02*
X2698Y1911D01*
X2861Y1911D02*
X2882Y1911D01*
X3045Y1911D02*
X3066Y1911D01*
X2128Y1910D02*
X2145Y1910D01*
X2312Y1910D02*
X2328Y1910D01*
X2496Y1910D02*
X2512Y1910D01*
X2680Y1910D02*
X2696Y1910D01*
X2863Y1910D02*
X2880Y1910D01*
X3047Y1910D02*
X3064Y1910D01*
D02*
G04 End of Silk0*
M02*