; NON-PLATED HOLES START AT T1
; THROUGH (PLATED) HOLES START AT T100
M48
INCH
T1C0.122047
T100C0.035433
T101C0.041361
T102C0.040000
T103C0.042000
T104C0.060020
T105C0.043307
T106C0.030000
T107C0.100000
T108C0.035000
T109C0.041333
T110C0.031497
T111C0.039370
T112C0.088356
T113C0.038000
%
T1
X001122Y000955
X033331Y000955
X033248Y024414
X001131Y024414
T100
X000796Y008742
X002112Y009300
X002112Y006300
X000796Y005742
T101
X011318Y005092
X004086Y005114
X019229Y005114
X030528Y007251
T102
X007000Y019998
X004918Y010191
X004918Y012331
X007000Y021068
X004918Y011261
X007000Y022138
T103
X011222Y020372
X008242Y020372
T104
X014120Y024564
X016050Y021474
X033525Y019110
X030985Y018170
X012200Y023284
X015060Y022024
X032245Y021030
X012400Y020334
X029295Y020830
X030435Y017180
T105
X019747Y012515
X019747Y013515
X007001Y023993
X017406Y023363
X017406Y022363
X033461Y011317
X016562Y013521
X016562Y012521
X018502Y023351
X023812Y002873
X018502Y022351
X005634Y018651
T106
X003330Y011007
X006200Y007594
X012488Y014434
X012488Y016434
X003330Y009007
X008200Y007594
T107
X004133Y019440
X005333Y021340
X002933Y021340
T108
X026954Y012206
X009959Y011756
X011189Y016935
X009959Y009756
X022005Y008336
X009959Y012756
X009621Y017959
X026937Y021103
X028896Y016271
X006959Y013756
X006621Y017959
X026954Y017206
X025328Y010156
X009959Y014756
X010151Y007602
X019880Y024367
X023954Y013206
X028076Y015390
X023954Y017206
X016725Y017024
X029131Y008401
X026954Y013206
X006959Y010756
X023954Y012206
X026131Y008401
X022314Y017789
X022368Y013114
X006959Y015756
X009031Y024556
X000754Y016229
X001995Y015254
X014383Y013559
X011389Y008681
X026410Y009310
X008189Y016935
X009959Y010756
X027591Y019234
X016880Y024367
X026954Y016206
X025600Y006823
X026954Y011206
X025005Y008336
X012380Y008868
X022368Y016114
X023954Y014206
X028076Y012390
X019725Y017024
X028600Y006823
X009959Y015756
X025004Y018356
X013151Y007602
X022328Y010156
X000754Y013229
X023954Y015206
X026937Y024103
X001995Y012254
X015614Y017758
X011383Y013559
X026954Y014206
X006959Y012756
X015614Y014758
X026954Y015206
X006959Y009756
X021030Y011690
X028004Y018356
X006959Y011756
X022314Y020789
X021030Y008690
X006959Y014756
X012380Y011868
X023954Y016206
X028896Y013271
X023954Y011206
X009031Y023556
X009959Y013756
X024591Y019234
X023410Y009310
X008389Y008681
T109
X013318Y005092
X032528Y007251
X012318Y005092
X005086Y005114
X020229Y005114
X006086Y005114
X021229Y005114
X031528Y007251
T110
X013872Y009656
X020135Y023111
X001074Y017926
X013872Y010640
X002059Y017926
X020135Y022126
T111
X021271Y006471
X030625Y008540
X031625Y008540
X032625Y008540
X020271Y006471
X019271Y006471
T112
X033470Y004298
X007027Y002161
X018288Y002161
X003144Y002161
X022171Y002161
X010377Y002139
X029587Y004298
X014260Y002139
T113
X032906Y012518
X013413Y017959
X031331Y012518
X018659Y012510
X014413Y018959
X028161Y022423
X030254Y022426
X027065Y003022
X027065Y003809
X017659Y012510
X032118Y012518
X025097Y003809
X025097Y004596
X029161Y023423
X031331Y014486
X032118Y014486
X018659Y013510
X027065Y004596
X025097Y003022
X030254Y023426
X029161Y022423
X020027Y020043
X018453Y020043
X019240Y018075
X010948Y023386
X017659Y013510
X032906Y014486
X028161Y023423
X014413Y017959
X010948Y022386
X013413Y018959
X018453Y018075
X020027Y018075
X019240Y020043
T00
M30
