G04 MADE WITH FRITZING*
G04 WWW.FRITZING.ORG*
G04 DOUBLE SIDED*
G04 HOLES PLATED*
G04 CONTOUR ON CENTER OF CONTOUR VECTOR*
%ASAXBY*%
%FSLAX23Y23*%
%MOIN*%
%OFA0B0*%
%SFA1.0B1.0*%
%ADD10C,0.068000*%
%ADD11C,0.084000*%
%ADD12C,0.092000*%
%ADD13C,0.080000*%
%ADD14C,0.093307*%
%ADD15C,0.085000*%
%ADD16C,0.150000*%
%ADD17C,0.088000*%
%ADD18C,0.072992*%
%ADD19C,0.089370*%
%ADD20C,0.100020*%
%ADD21C,0.084667*%
%ADD22C,0.084695*%
%ADD23C,0.134033*%
%ADD24C,0.132047*%
%ADD25R,0.068000X0.068000*%
%ADD26R,0.092000X0.092000*%
%ADD27R,0.085000X0.085000*%
%ADD28R,0.072992X0.072992*%
%LNMASK0*%
G90*
G70*
G54D10*
X1924Y1808D03*
X1924Y2004D03*
X1845Y2004D03*
X2003Y2004D03*
X2003Y1808D03*
X1845Y1808D03*
X2510Y381D03*
X2707Y381D03*
X2707Y460D03*
X2707Y302D03*
X2510Y302D03*
X2510Y460D03*
X3212Y1252D03*
X3212Y1449D03*
X3133Y1449D03*
X3291Y1449D03*
X3291Y1252D03*
X3133Y1252D03*
G54D11*
X211Y630D03*
X211Y930D03*
X80Y874D03*
X80Y574D03*
G54D12*
X1122Y2037D03*
X824Y2037D03*
G54D13*
X820Y759D03*
X620Y759D03*
G54D14*
X1975Y1352D03*
X1975Y1252D03*
X1741Y2236D03*
X1741Y2336D03*
G54D13*
X333Y901D03*
X333Y1101D03*
G54D14*
X2381Y287D03*
G54D15*
X2395Y1721D03*
X2395Y1621D03*
X2395Y1521D03*
X2395Y1421D03*
X2395Y1321D03*
X2395Y1221D03*
X2395Y1121D03*
X2695Y1121D03*
X2695Y1221D03*
X2695Y1321D03*
X2695Y1421D03*
X2695Y1521D03*
X2695Y1621D03*
X2695Y1721D03*
X696Y1576D03*
X696Y1476D03*
X696Y1376D03*
X696Y1276D03*
X696Y1176D03*
X696Y1076D03*
X696Y976D03*
X996Y976D03*
X996Y1076D03*
X996Y1176D03*
X996Y1276D03*
X996Y1376D03*
X996Y1476D03*
X996Y1576D03*
G54D13*
X1249Y1643D03*
X1249Y1443D03*
G54D15*
X903Y2456D03*
X903Y2356D03*
G54D16*
X533Y2134D03*
X293Y2134D03*
X413Y1944D03*
G54D14*
X1850Y2335D03*
X1850Y2235D03*
X3346Y1132D03*
G54D17*
X1095Y2239D03*
X1095Y2339D03*
G54D15*
X2694Y2410D03*
X2694Y2110D03*
G54D17*
X2816Y2242D03*
X2916Y2242D03*
X2816Y2242D03*
X2916Y2242D03*
X2916Y2342D03*
X2816Y2342D03*
X3025Y2343D03*
X3025Y2343D03*
X3025Y2243D03*
G54D14*
X1656Y1252D03*
X1656Y1352D03*
G54D15*
X2103Y1169D03*
X2103Y869D03*
G54D17*
X1866Y1251D03*
X1866Y1351D03*
X1866Y1251D03*
X1866Y1351D03*
X1766Y1351D03*
X1766Y1251D03*
X1341Y1896D03*
X1341Y1796D03*
X1341Y1896D03*
X1341Y1796D03*
X1441Y1796D03*
X1441Y1896D03*
G54D18*
X107Y1793D03*
X206Y1793D03*
G54D19*
X3063Y854D03*
X3163Y854D03*
X3263Y854D03*
X1927Y647D03*
X2027Y647D03*
X2127Y647D03*
G54D18*
X2014Y2213D03*
X2014Y2311D03*
G54D20*
X3044Y1718D03*
X3099Y1817D03*
X2930Y2083D03*
X3225Y2103D03*
X3353Y1911D03*
G54D21*
X3253Y725D03*
X3153Y725D03*
G54D22*
X3053Y725D03*
G54D23*
X3347Y430D03*
X2959Y430D03*
G54D21*
X2123Y511D03*
X2023Y511D03*
G54D22*
X1923Y511D03*
G54D23*
X2217Y216D03*
X1829Y216D03*
G54D21*
X1332Y509D03*
X1232Y509D03*
G54D22*
X1132Y509D03*
G54D23*
X1426Y214D03*
X1038Y214D03*
G54D21*
X609Y511D03*
X509Y511D03*
G54D22*
X409Y511D03*
G54D23*
X703Y216D03*
X314Y216D03*
G54D18*
X1387Y966D03*
X1387Y1064D03*
G54D15*
X1315Y760D03*
X1015Y760D03*
X1139Y868D03*
X839Y868D03*
X1119Y1694D03*
X819Y1694D03*
X1438Y1356D03*
X1138Y1356D03*
X200Y1225D03*
X200Y1525D03*
X1238Y887D03*
X1238Y1187D03*
X75Y1623D03*
X75Y1323D03*
X962Y1796D03*
X662Y1796D03*
G54D20*
X1605Y2147D03*
X1506Y2202D03*
X1240Y2033D03*
X1220Y2328D03*
X1412Y2456D03*
G54D15*
X1988Y2437D03*
X1688Y2437D03*
X2501Y834D03*
X2201Y834D03*
X2341Y931D03*
X2641Y931D03*
X2560Y682D03*
X2860Y682D03*
X2233Y1016D03*
X2533Y1016D03*
X2890Y1327D03*
X2890Y1627D03*
X2808Y1239D03*
X2808Y1539D03*
X1973Y1702D03*
X1673Y1702D03*
X2500Y1836D03*
X2800Y1836D03*
X2459Y1923D03*
X2759Y1923D03*
X2237Y1611D03*
X2237Y1311D03*
G54D11*
X492Y1233D03*
X492Y1126D03*
X492Y1019D03*
G54D14*
X563Y1865D03*
X700Y2399D03*
G54D15*
X2913Y840D03*
X2613Y840D03*
G54D24*
X112Y96D03*
X113Y2441D03*
X3325Y2441D03*
X3333Y96D03*
G54D15*
X2231Y1779D03*
X2231Y2079D03*
X1561Y1476D03*
X1561Y1776D03*
G54D11*
X700Y2000D03*
X700Y2107D03*
X700Y2214D03*
G54D25*
X2002Y2005D03*
X2707Y303D03*
X3290Y1449D03*
G54D26*
X1123Y2037D03*
G54D27*
X2395Y1721D03*
X696Y1576D03*
X903Y2456D03*
G54D28*
X107Y1793D03*
X2014Y2213D03*
X1387Y966D03*
G04 End of Mask0*
M02*